<?xml version="1.0" encoding="UTF-8" standalone="no"?>
<!DOCTYPE svg PUBLIC "-//W3C//DTD SVG 1.1//EN" "http://www.w3.org/Graphics/SVG/1.1/DTD/svg11.dtd">
<svg version="1.1" xmlns="http://www.w3.org/2000/svg" xmlns:xlink="http://www.w3.org/1999/xlink" preserveAspectRatio="xMidYMid meet" viewBox="0 0 640 640" width="640" height="640"><defs><path d="M62.64 272.5C62.64 413.32 175.82 527.65 315.22 527.65C454.62 527.65 567.8 413.32 567.8 272.5C567.8 131.68 454.62 17.35 315.22 17.35C175.82 17.35 62.64 131.68 62.64 272.5Z" id="b7aRzN4xEY"></path><path d="M68 270L297 270L297 275L68 275L68 270Z" id="a4dKlBuR3x"></path><path d="M312.51 156.57L318 157.44L299.37 275.05L293.88 274.18L312.51 156.57Z" id="e35r74Ixq"></path><path d="M312.44 156.57L318 156.57L318 367.65L312.44 367.65L312.44 156.57Z" id="a4RnxpmnDy"></path><path d="M329 269.25L558 269.25L558 274.25L329 274.25L329 269.25Z" id="e2Y02ynHW0"></path><path d="M328.27 269.25L333.76 270.12L317.93 370.05L312.44 369.18L328.27 269.25Z" id="ioRanzTLh"></path></defs><g><g><g><use xlink:href="#b7aRzN4xEY" opacity="1" fill="#088d9c" fill-opacity="1"></use></g><g><use xlink:href="#a4dKlBuR3x" opacity="1" fill="#eae2e2" fill-opacity="1"></use></g><g><use xlink:href="#e35r74Ixq" opacity="1" fill="#eae2e2" fill-opacity="1"></use></g><g><use xlink:href="#a4RnxpmnDy" opacity="1" fill="#eae2e2" fill-opacity="1"></use></g><g><use xlink:href="#e2Y02ynHW0" opacity="1" fill="#eae2e2" fill-opacity="1"></use></g><g><use xlink:href="#ioRanzTLh" opacity="1" fill="#eae2e2" fill-opacity="1"></use></g></g></g></svg>