<?xml version="1.0" encoding="UTF-8" standalone="no"?>
<!DOCTYPE svg PUBLIC "-//W3C//DTD SVG 1.1//EN" "http://www.w3.org/Graphics/SVG/1.1/DTD/svg11.dtd">
<svg version="1.1" xmlns="http://www.w3.org/2000/svg" xmlns:xlink="http://www.w3.org/1999/xlink" preserveAspectRatio="xMidYMid meet" viewBox="0 0 640 640" width="640" height="640"><defs><path d="M58.45 261.24C58.45 402.06 171.63 516.39 311.03 516.39C450.43 516.39 563.61 402.06 563.61 261.24C563.61 120.41 450.43 6.08 311.03 6.08C171.63 6.08 58.45 120.41 58.45 261.24Z" id="c1dOV2auT2"></path><path d="M225.48 432.26L402.14 432.26L402.14 68.65L225.48 68.65L225.48 432.26Z" id="e3KwXrYVzq"></path><path d="M242.22 94.44L315.56 94.44L315.56 107.78L242.22 107.78L242.22 94.44Z" id="a5SeYNp0Z"></path><path d="M242.22 124.44L315.56 124.44L315.56 137.78L242.22 137.78L242.22 124.44Z" id="b1IIGGmteg"></path><path d="M379.84 158.89L306.51 158.89L306.51 172.22L379.84 172.22L379.84 158.89Z" id="a4PkjSOTh0"></path><path d="M379.84 376.67L306.51 376.67L306.51 390L379.84 390L379.84 376.67Z" id="d2ke98bBnL"></path><path d="M379.84 341.11L306.51 341.11L306.51 354.44L379.84 354.44L379.84 341.11Z" id="e53ghg7osB"></path><path d="M379.84 194.44L306.51 194.44L306.51 207.78L379.84 207.78L379.84 194.44Z" id="aetVtZ0jf"></path><path d="M342.22 94.44L355.56 94.44L355.56 107.78L342.22 107.78L342.22 94.44Z" id="bsD5kht2j"></path><path d="M342.22 124.44L355.56 124.44L355.56 137.78L342.22 137.78L342.22 124.44Z" id="a184SLSiCW"></path><path d="M279.84 158.89L266.51 158.89L266.51 172.22L279.84 172.22L279.84 158.89Z" id="c61ju8jCbH"></path><path d="M279.84 194.44L266.51 194.44L266.51 207.78L279.84 207.78L279.84 194.44Z" id="d1oj6ixvOF"></path><path d="M279.84 341.11L266.51 341.11L266.51 354.44L279.84 354.44L279.84 341.11Z" id="bO7xLC6RB"></path><path d="M279.84 376.67L266.51 376.67L266.51 390L279.84 390L279.84 376.67Z" id="a3RuXpySF"></path><path d="M368.89 94.44L382.22 94.44L382.22 107.78L368.89 107.78L368.89 94.44Z" id="b1BzxjUvRZ"></path><path d="M368.89 124.44L382.22 124.44L382.22 137.78L368.89 137.78L368.89 124.44Z" id="dtzn0ABMc"></path><path d="M253.17 158.89L239.84 158.89L239.84 172.22L253.17 172.22L253.17 158.89Z" id="adcHEsOoR"></path><path d="M253.17 194.44L239.84 194.44L239.84 207.78L253.17 207.78L253.17 194.44Z" id="b1jcL0BwRp"></path><path d="M253.17 341.11L239.84 341.11L239.84 354.44L253.17 354.44L253.17 341.11Z" id="b1o2wkjBbK"></path><path d="M253.17 376.67L239.84 376.67L239.84 390L253.17 390L253.17 376.67Z" id="blHIjceEM"></path></defs><g><g><g><use xlink:href="#c1dOV2auT2" opacity="1" fill="#088d9c" fill-opacity="1"></use></g><g><use xlink:href="#e3KwXrYVzq" opacity="1" fill="#84c9c9" fill-opacity="1"></use><g><use xlink:href="#e3KwXrYVzq" opacity="1" fill-opacity="0" stroke="#030303" stroke-width="1" stroke-opacity="1"></use></g></g><g><use xlink:href="#a5SeYNp0Z" opacity="1" fill="#f9f9f9" fill-opacity="1"></use><g><use xlink:href="#a5SeYNp0Z" opacity="1" fill-opacity="0" stroke="#060606" stroke-width="5" stroke-opacity="1"></use></g></g><g><use xlink:href="#b1IIGGmteg" opacity="1" fill="#f9f9f9" fill-opacity="1"></use><g><use xlink:href="#b1IIGGmteg" opacity="1" fill-opacity="0" stroke="#060606" stroke-width="5" stroke-opacity="1"></use></g></g><g><use xlink:href="#a4PkjSOTh0" opacity="1" fill="#f9f9f9" fill-opacity="1"></use><g><use xlink:href="#a4PkjSOTh0" opacity="1" fill-opacity="0" stroke="#060606" stroke-width="5" stroke-opacity="1"></use></g></g><g><use xlink:href="#d2ke98bBnL" opacity="1" fill="#f9f9f9" fill-opacity="1"></use><g><use xlink:href="#d2ke98bBnL" opacity="1" fill-opacity="0" stroke="#060606" stroke-width="5" stroke-opacity="1"></use></g></g><g><use xlink:href="#e53ghg7osB" opacity="1" fill="#f9f9f9" fill-opacity="1"></use><g><use xlink:href="#e53ghg7osB" opacity="1" fill-opacity="0" stroke="#060606" stroke-width="5" stroke-opacity="1"></use></g></g><g><use xlink:href="#aetVtZ0jf" opacity="1" fill="#f9f9f9" fill-opacity="1"></use><g><use xlink:href="#aetVtZ0jf" opacity="1" fill-opacity="0" stroke="#060606" stroke-width="5" stroke-opacity="1"></use></g></g><g><use xlink:href="#bsD5kht2j" opacity="1" fill="#f9f9f9" fill-opacity="1"></use><g><use xlink:href="#bsD5kht2j" opacity="1" fill-opacity="0" stroke="#060606" stroke-width="5" stroke-opacity="1"></use></g></g><g><use xlink:href="#a184SLSiCW" opacity="1" fill="#f9f9f9" fill-opacity="1"></use><g><use xlink:href="#a184SLSiCW" opacity="1" fill-opacity="0" stroke="#060606" stroke-width="5" stroke-opacity="1"></use></g></g><g><use xlink:href="#c61ju8jCbH" opacity="1" fill="#f9f9f9" fill-opacity="1"></use><g><use xlink:href="#c61ju8jCbH" opacity="1" fill-opacity="0" stroke="#060606" stroke-width="5" stroke-opacity="1"></use></g></g><g><use xlink:href="#d1oj6ixvOF" opacity="1" fill="#f9f9f9" fill-opacity="1"></use><g><use xlink:href="#d1oj6ixvOF" opacity="1" fill-opacity="0" stroke="#060606" stroke-width="5" stroke-opacity="1"></use></g></g><g><use xlink:href="#bO7xLC6RB" opacity="1" fill="#f9f9f9" fill-opacity="1"></use><g><use xlink:href="#bO7xLC6RB" opacity="1" fill-opacity="0" stroke="#060606" stroke-width="5" stroke-opacity="1"></use></g></g><g><use xlink:href="#a3RuXpySF" opacity="1" fill="#f9f9f9" fill-opacity="1"></use><g><use xlink:href="#a3RuXpySF" opacity="1" fill-opacity="0" stroke="#060606" stroke-width="5" stroke-opacity="1"></use></g></g><g><use xlink:href="#b1BzxjUvRZ" opacity="1" fill="#f9f9f9" fill-opacity="1"></use><g><use xlink:href="#b1BzxjUvRZ" opacity="1" fill-opacity="0" stroke="#060606" stroke-width="5" stroke-opacity="1"></use></g></g><g><use xlink:href="#dtzn0ABMc" opacity="1" fill="#f9f9f9" fill-opacity="1"></use><g><use xlink:href="#dtzn0ABMc" opacity="1" fill-opacity="0" stroke="#060606" stroke-width="5" stroke-opacity="1"></use></g></g><g><use xlink:href="#adcHEsOoR" opacity="1" fill="#f9f9f9" fill-opacity="1"></use><g><use xlink:href="#adcHEsOoR" opacity="1" fill-opacity="0" stroke="#060606" stroke-width="5" stroke-opacity="1"></use></g></g><g><use xlink:href="#b1jcL0BwRp" opacity="1" fill="#f9f9f9" fill-opacity="1"></use><g><use xlink:href="#b1jcL0BwRp" opacity="1" fill-opacity="0" stroke="#060606" stroke-width="5" stroke-opacity="1"></use></g></g><g><use xlink:href="#b1o2wkjBbK" opacity="1" fill="#f9f9f9" fill-opacity="1"></use><g><use xlink:href="#b1o2wkjBbK" opacity="1" fill-opacity="0" stroke="#060606" stroke-width="5" stroke-opacity="1"></use></g></g><g><use xlink:href="#blHIjceEM" opacity="1" fill="#f9f9f9" fill-opacity="1"></use><g><use xlink:href="#blHIjceEM" opacity="1" fill-opacity="0" stroke="#060606" stroke-width="5" stroke-opacity="1"></use></g></g></g></g></svg>