<?xml version="1.0" encoding="UTF-8" standalone="no"?>
<!DOCTYPE svg PUBLIC "-//W3C//DTD SVG 1.1//EN" "http://www.w3.org/Graphics/SVG/1.1/DTD/svg11.dtd">
<svg version="1.1" xmlns="http://www.w3.org/2000/svg" xmlns:xlink="http://www.w3.org/1999/xlink" preserveAspectRatio="xMidYMid meet" viewBox="0 0 640 640" width="640" height="640"><defs><path d="M58.45 261.24C58.45 402.06 171.63 516.39 311.03 516.39C450.43 516.39 563.61 402.06 563.61 261.24C563.61 120.41 450.43 6.08 311.03 6.08C171.63 6.08 58.45 120.41 58.45 261.24Z" id="c1dOV2auT2"></path><path d="M91.11 298.6L543.33 298.6L543.33 223.88L91.11 223.88L91.11 298.6Z" id="a16kF7uzfu"></path><path d="M494.84 268.11L421.51 268.11L421.51 281.44L494.84 281.44L494.84 268.11Z" id="blf4Z7ZtI"></path><path d="M375.84 268.11L302.51 268.11L302.51 281.44L375.84 281.44L375.84 268.11Z" id="a2rsKgThSg"></path><path d="M375.84 238.11L302.51 238.11L302.51 251.44L375.84 251.44L375.84 238.11Z" id="e5wpje7HE"></path><path d="M494.84 238.11L421.51 238.11L421.51 251.44L494.84 251.44L494.84 238.11Z" id="c7eERrQ2jG"></path><path d="M235.56 268.11L248.89 268.11L248.89 281.44L235.56 281.44L235.56 268.11Z" id="b2ampOgbDP"></path><path d="M235.56 238.11L248.89 238.11L248.89 251.44L235.56 251.44L235.56 238.11Z" id="a6wZzPOEv"></path><path d="M213.84 268.11L200.51 268.11L200.51 281.44L213.84 281.44L213.84 268.11Z" id="ha8T2c3nD"></path><path d="M180.84 268.11L167.51 268.11L167.51 281.44L180.84 281.44L180.84 268.11Z" id="a3R1nMQIon"></path><path d="M121.84 268.11L108.51 268.11L108.51 281.44L121.84 281.44L121.84 268.11Z" id="a2MFVSUJPr"></path><path d="M150.84 238.11L137.51 238.11L137.51 251.44L150.84 251.44L150.84 238.11Z" id="d1NDtVwm8z"></path><path d="M267.89 238.11L281.22 238.11L281.22 251.44L267.89 251.44L267.89 238.11Z" id="al6j02lfy"></path><path d="M268.89 268.11L282.22 268.11L282.22 281.44L268.89 281.44L268.89 268.11Z" id="bcKTYoq4f"></path><path d="M214.17 238.11L200.84 238.11L200.84 251.44L214.17 251.44L214.17 238.11Z" id="a18nEPKMa"></path><path d="M181.17 238.11L167.84 238.11L167.84 251.44L181.17 251.44L181.17 238.11Z" id="bQ0Dp3d7z"></path><path d="M121.17 238.11L107.84 238.11L107.84 251.44L121.17 251.44L121.17 238.11Z" id="bzgNnH6vF"></path><path d="M151.17 268.11L137.84 268.11L137.84 281.44L151.17 281.44L151.17 268.11Z" id="j7TDHpQvr"></path></defs><g><g><g><use xlink:href="#c1dOV2auT2" opacity="1" fill="#088d9c" fill-opacity="1"></use></g><g><use xlink:href="#a16kF7uzfu" opacity="1" fill="#84c9c9" fill-opacity="1"></use><g><use xlink:href="#a16kF7uzfu" opacity="1" fill-opacity="0" stroke="#030303" stroke-width="1" stroke-opacity="1"></use></g></g><g><use xlink:href="#blf4Z7ZtI" opacity="1" fill="#f9f9f9" fill-opacity="1"></use><g><use xlink:href="#blf4Z7ZtI" opacity="1" fill-opacity="0" stroke="#060606" stroke-width="5" stroke-opacity="1"></use></g></g><g><use xlink:href="#a2rsKgThSg" opacity="1" fill="#f9f9f9" fill-opacity="1"></use><g><use xlink:href="#a2rsKgThSg" opacity="1" fill-opacity="0" stroke="#060606" stroke-width="5" stroke-opacity="1"></use></g></g><g><use xlink:href="#e5wpje7HE" opacity="1" fill="#f9f9f9" fill-opacity="1"></use><g><use xlink:href="#e5wpje7HE" opacity="1" fill-opacity="0" stroke="#060606" stroke-width="5" stroke-opacity="1"></use></g></g><g><use xlink:href="#c7eERrQ2jG" opacity="1" fill="#f9f9f9" fill-opacity="1"></use><g><use xlink:href="#c7eERrQ2jG" opacity="1" fill-opacity="0" stroke="#060606" stroke-width="5" stroke-opacity="1"></use></g></g><g><use xlink:href="#b2ampOgbDP" opacity="1" fill="#f9f9f9" fill-opacity="1"></use><g><use xlink:href="#b2ampOgbDP" opacity="1" fill-opacity="0" stroke="#060606" stroke-width="5" stroke-opacity="1"></use></g></g><g><use xlink:href="#a6wZzPOEv" opacity="1" fill="#f9f9f9" fill-opacity="1"></use><g><use xlink:href="#a6wZzPOEv" opacity="1" fill-opacity="0" stroke="#060606" stroke-width="5" stroke-opacity="1"></use></g></g><g><use xlink:href="#ha8T2c3nD" opacity="1" fill="#f9f9f9" fill-opacity="1"></use><g><use xlink:href="#ha8T2c3nD" opacity="1" fill-opacity="0" stroke="#060606" stroke-width="5" stroke-opacity="1"></use></g></g><g><use xlink:href="#a3R1nMQIon" opacity="1" fill="#f9f9f9" fill-opacity="1"></use><g><use xlink:href="#a3R1nMQIon" opacity="1" fill-opacity="0" stroke="#060606" stroke-width="5" stroke-opacity="1"></use></g></g><g><use xlink:href="#a2MFVSUJPr" opacity="1" fill="#f9f9f9" fill-opacity="1"></use><g><use xlink:href="#a2MFVSUJPr" opacity="1" fill-opacity="0" stroke="#060606" stroke-width="5" stroke-opacity="1"></use></g></g><g><use xlink:href="#d1NDtVwm8z" opacity="1" fill="#f9f9f9" fill-opacity="1"></use><g><use xlink:href="#d1NDtVwm8z" opacity="1" fill-opacity="0" stroke="#060606" stroke-width="5" stroke-opacity="1"></use></g></g><g><use xlink:href="#al6j02lfy" opacity="1" fill="#f9f9f9" fill-opacity="1"></use><g><use xlink:href="#al6j02lfy" opacity="1" fill-opacity="0" stroke="#060606" stroke-width="5" stroke-opacity="1"></use></g></g><g><use xlink:href="#bcKTYoq4f" opacity="1" fill="#f9f9f9" fill-opacity="1"></use><g><use xlink:href="#bcKTYoq4f" opacity="1" fill-opacity="0" stroke="#060606" stroke-width="5" stroke-opacity="1"></use></g></g><g><use xlink:href="#a18nEPKMa" opacity="1" fill="#f9f9f9" fill-opacity="1"></use><g><use xlink:href="#a18nEPKMa" opacity="1" fill-opacity="0" stroke="#060606" stroke-width="5" stroke-opacity="1"></use></g></g><g><use xlink:href="#bQ0Dp3d7z" opacity="1" fill="#f9f9f9" fill-opacity="1"></use><g><use xlink:href="#bQ0Dp3d7z" opacity="1" fill-opacity="0" stroke="#060606" stroke-width="5" stroke-opacity="1"></use></g></g><g><use xlink:href="#bzgNnH6vF" opacity="1" fill="#f9f9f9" fill-opacity="1"></use><g><use xlink:href="#bzgNnH6vF" opacity="1" fill-opacity="0" stroke="#060606" stroke-width="5" stroke-opacity="1"></use></g></g><g><use xlink:href="#j7TDHpQvr" opacity="1" fill="#f9f9f9" fill-opacity="1"></use><g><use xlink:href="#j7TDHpQvr" opacity="1" fill-opacity="0" stroke="#060606" stroke-width="5" stroke-opacity="1"></use></g></g></g></g></svg>